<svg xmlns="http://www.w3.org/2000/svg" xmlns:xlink="http://www.w3.org/1999/xlink" width="1080" zoomAndPan="magnify" viewBox="0 0 810 809.999993" height="1080" preserveAspectRatio="xMidYMid meet" version="1.0"><defs><clipPath id="fd342d0531"><path d="M 203 547 L 478 547 L 478 784.023438 L 203 784.023438 Z M 203 547 " clip-rule="nonzero"/></clipPath><clipPath id="f6bfb17992"><path d="M 446 25.773438 L 807 25.773438 L 807 338 L 446 338 Z M 446 25.773438 " clip-rule="nonzero"/></clipPath></defs><path fill="#f7941e" d="M 171.816406 415.519531 L 228.121094 512.683594 L 171.816406 610.128906 L 59.480469 610.128906 L 3.171875 512.695312 L 59.480469 415.53125 Z M 171.816406 415.519531 " fill-opacity="1" fill-rule="nonzero"/><path fill="#8dc63f" d="M 411.378906 240.542969 L 479.902344 358.964844 L 411.378906 477.382812 L 274.882812 477.382812 L 206.347656 358.949219 L 274.871094 240.53125 Z M 411.378906 240.542969 " fill-opacity="1" fill-rule="nonzero"/><g clip-path="url(#fd342d0531)"><path fill="#fdb913" d="M 408.980469 547.21875 L 477.242188 665.640625 L 408.980469 784.058594 L 272.207031 784.058594 L 203.683594 665.640625 L 272.207031 547.21875 Z M 408.980469 547.21875 " fill-opacity="1" fill-rule="nonzero"/></g><g clip-path="url(#f6bfb17992)"><path fill="#25bdbe" d="M 716.792969 25.746094 L 806.828125 181.601562 L 716.792969 337.734375 L 536.472656 337.734375 L 446.4375 181.601562 L 536.472656 25.746094 Z M 716.792969 25.746094 " fill-opacity="1" fill-rule="nonzero"/></g></svg>